<?xml version="1.0" encoding="utf-8"?>
<!-- Generator: Adobe Illustrator 19.0.0, SVG Export Plug-In . SVG Version: 6.00 Build 0)  -->
<svg version="1.1" id="Layer_1" xmlns="http://www.w3.org/2000/svg" xmlns:xlink="http://www.w3.org/1999/xlink" x="0px" y="0px"
	 viewBox="0 0 512 512" style="enable-background:new 0 0 512 512;" xml:space="preserve">
<style type="text/css">
	.st0{fill:#FFCB0B;}
	.st1{fill:#FAA71C;}
	.st2{fill:#FFFFFF;}
	.st3{fill:#412312;}
</style>
<g id="XMLID_20_">
	<path id="XMLID_18_" class="st0" d="M306.4,403.1h-88.8c-22.5,0-41-18.4-41-41V130.4c0-22.5,18.4-41,41-41h88.8
		c22.5,0,41,18.4,41,41v231.7C347.4,384.6,329,403.1,306.4,403.1z"/>
	<path id="XMLID_17_" class="st0" d="M488.3,245.5L488.3,245.5c0,45.5-37.2,82.7-82.7,82.7H112.5c-45.5,0-82.7-37.2-82.7-82.7v0
		c0-45.5,37.2-82.7,82.7-82.7h293.1C451.1,162.8,488.3,200,488.3,245.5z"/>
	<g id="XMLID_21_">
		<g id="XMLID_33_">
			<path id="XMLID_16_" class="st1" d="M171.2,329.1c1.6,8,4.4,15.5,8,22.6h77.3V329H256L171.2,329.1z"/>
			<polygon id="XMLID_15_" class="st1" points="169.5,281.4 169.5,303.9 256,303.7 256.5,303.7 256.5,281.4 			"/>
			<rect id="XMLID_14_" x="169.5" y="234.8" class="st1" width="87" height="21.4"/>
			<path id="XMLID_13_" class="st1" d="M171.2,161.9c9.8,0,47.6,0,85.3-0.1V92.1C218.7,91.9,180.7,115.2,171.2,161.9z"/>
			<path id="XMLID_12_" class="st1" d="M198.6,376.9c16.6,15,37.3,22.5,57.9,22.3v-22.3H198.6z"/>
			<path id="XMLID_11_" class="st1" d="M169.5,209.6h87v-22.5c-43.4,0-87,0.1-87,0.1V209.6z"/>
		</g>
		<path id="XMLID_10_" class="st2" d="M281,144.9c-6.9-7.1-16.2-11-26-11c-6,0-10.8-4.9-10.8-11c0-6.1,4.8-11,10.8-11
			c15.6,0,30.3,6.2,41.3,17.4c4.2,4.3,4.2,11.2,0,15.5C292.1,149.2,285.2,149.2,281,144.9z"/>
		<path id="XMLID_22_" class="st3" d="M420.1,162l-54.3-0.1c-4.8-30.7-21.7-57.3-45.6-74.5l35-35.5c4.9-4.9,4.9-12.9,0-17.8
			c-4.8-4.9-12.7-4.9-17.6,0l-40.1,40.7c-27.4-11.2-58.2-11.2-86.1,1.3L170,34c-4.8-4.9-12.7-4.9-17.6,0c-4.8,4.9-4.8,12.9,0,17.8
			l36.8,37.4c-22.6,17.3-38.5,43.1-43.1,72.7L91.9,162c-45.3,0-82.3,37.5-82.3,83.6c0,46.1,36.9,83.6,82.3,83.6l54.3-0.1
			c7.7,48.9,46.6,89.2,97.4,94.6v38.6c0,7,5.5,12.6,12.4,12.6s12.4-5.7,12.4-12.6v-38.8c46.2-5.5,88.8-39.4,97.4-94.4l54.3,0.1
			c0,0,0,0,0,0c45.3,0,82.2-37.5,82.3-83.6C502.4,199.5,465.5,162,420.1,162z M144.6,303.9L91.9,304c-31.7,0-57.4-26.2-57.4-58.4
			c0-32.2,25.8-58.4,57.5-58.4l52.8,0V303.9z M340.7,161.8c-18.7,0-149.8,0.1-169.5,0.2C190.1,68.8,321.7,68.8,340.7,161.8z
			 M198.6,376.9h114.8C280.5,406.7,231.5,406.7,198.6,376.9z M332.8,351.7H179.2c-3.6-7-6.3-14.6-8-22.6L256,329l84.8,0.1
			C339.1,337.1,336.4,344.6,332.8,351.7z M342.5,303.9l-86.6-0.1l-86.5,0.1v-22.4h173.1V303.9z M342.5,256.2H169.5v-21.4h173.1
			V256.2z M342.5,209.6H169.5v-22.4c0,0,167.3-0.2,173.1-0.2V209.6z M420.1,304l-52.8-0.1V187.2l52.8,0.1
			c31.7,0,57.4,26.2,57.4,58.4C477.6,277.8,451.8,304,420.1,304z"/>
	</g>
</g>
</svg>
